<svg id="Layer_1" data-name="Layer 1" xmlns="http://www.w3.org/2000/svg" width="128" height="128" viewBox="0 0 128 128"><title>ProgrammingByExample</title><path d="M44.81,73.15H43.08a39.32,39.32,0,0,1,1.32-8.79,58.89,58.89,0,0,1,4.29-9.68A45.36,45.36,0,0,0,52,47.36a18.28,18.28,0,0,0,.76-5.17,12.26,12.26,0,0,0-2.85-8.52,9,9,0,0,0-7-3.17,8.86,8.86,0,0,0-5.78,1.73A4.9,4.9,0,0,0,35,36a8.37,8.37,0,0,0,1.26,3.84,8.07,8.07,0,0,1,1.27,3.46,3.57,3.57,0,0,1-1,2.55,3.11,3.11,0,0,1-2.36,1A4.18,4.18,0,0,1,31,45.12a7.39,7.39,0,0,1-1.46-4.87,11.08,11.08,0,0,1,4.1-8.44q4.08-3.66,11.09-3.67c5.79,0,10.06,1.69,12.78,5.06a12.68,12.68,0,0,1,3,8.23,16.32,16.32,0,0,1-1.37,6.33A30.16,30.16,0,0,1,54,55.39q-6.12,6.93-7.49,9.81A21.9,21.9,0,0,0,44.81,73.15Zm-.6,5.23a4.69,4.69,0,0,1,4.73,4.73,4.46,4.46,0,0,1-1.39,3.31,4.57,4.57,0,0,1-3.34,1.37,4.68,4.68,0,0,1-4.68-4.68,4.56,4.56,0,0,1,1.37-3.35A4.51,4.51,0,0,1,44.21,78.38Z"/><path d="M83.15,73.15H81.42a39.26,39.26,0,0,1,1.33-8.79A59.53,59.53,0,0,1,87,54.68a43.62,43.62,0,0,0,3.29-7.32,17.93,17.93,0,0,0,.76-5.17,12.3,12.3,0,0,0-2.84-8.52,9.05,9.05,0,0,0-7-3.17,8.89,8.89,0,0,0-5.78,1.73A4.91,4.91,0,0,0,73.37,36a8.37,8.37,0,0,0,1.26,3.84,8.21,8.21,0,0,1,1.27,3.46,3.62,3.62,0,0,1-1,2.55,3.13,3.13,0,0,1-2.37,1,4.16,4.16,0,0,1-3.22-1.75,7.39,7.39,0,0,1-1.46-4.87A11.1,11.1,0,0,1,72,31.81q4.09-3.66,11.1-3.67,8.69,0,12.78,5.06a12.68,12.68,0,0,1,3,8.23,16.32,16.32,0,0,1-1.37,6.33,30.43,30.43,0,0,1-5.21,7.63q-6.12,6.93-7.49,9.81A21.88,21.88,0,0,0,83.15,73.15Zm-.59,5.23a4.69,4.69,0,0,1,4.73,4.73,4.47,4.47,0,0,1-1.4,3.31,4.54,4.54,0,0,1-3.33,1.37,4.68,4.68,0,0,1-4.68-4.68,4.56,4.56,0,0,1,1.37-3.35A4.49,4.49,0,0,1,82.56,78.38Z"/></svg>