<svg id="Layer_1" data-name="Layer 1" xmlns="http://www.w3.org/2000/svg" width="128" height="128" viewBox="0 0 128 128"><title>Deuce</title><path d="M74.82,48.29V47.2h1.33a5.33,5.33,0,0,0,2.68-.55,3.34,3.34,0,0,0,1.37-1.49,14.16,14.16,0,0,0,.26-3.72V15.08a13.09,13.09,0,0,0-.32-3.84,3.06,3.06,0,0,0-1.31-1.35,5.39,5.39,0,0,0-2.68-.57H74.82V8.22H92.76q7.17,0,11.55,1.95a17.08,17.08,0,0,1,8.11,7.24,21.78,21.78,0,0,1,2.76,11,21.56,21.56,0,0,1-1.36,7.78A17.61,17.61,0,0,1,110.31,42a17.09,17.09,0,0,1-5,3.72,26.7,26.7,0,0,1-6.9,2.18,33.15,33.15,0,0,1-5.67.35ZM90.1,10.5V41.76a11.37,11.37,0,0,0,.23,3,1.72,1.72,0,0,0,.8.86,4.78,4.78,0,0,0,2.31.44A8.94,8.94,0,0,0,101,42.74q3.54-4.56,3.55-14.13,0-7.71-2.43-12.32a10.29,10.29,0,0,0-4.93-4.9Q95,10.47,90.1,10.5Z"/><polygon points="28.33 26.86 28.33 99.79 55.53 73.96 91.49 63.33 28.33 26.86"/><rect x="52.9" y="66.11" width="24.56" height="49.13" transform="translate(-36.61 44.74) rotate(-30)"/></svg>