<svg id="Layer_1" data-name="Layer 1" xmlns="http://www.w3.org/2000/svg" width="128" height="128" viewBox="0 0 128 128"><defs><style>.cls-1,.cls-2{fill:none;stroke:#000;stroke-miterlimit:10;}.cls-1{stroke-width:4px;}.cls-2{stroke-width:12px;}</style></defs><title>Artboard 1</title><path d="M67.44,53,66.21,65.1q-.28,3.16-.29,6.33,0,6,1.41,7.32A4.65,4.65,0,0,0,70.56,80q4.05,0,4.81-5.11h1.56q-1.4,11.73-9.32,11.73-8.31,0-8.31-9.53a97.71,97.71,0,0,1,.92-12L61.79,53H57.61a10.36,10.36,0,0,0-5.38,1.16,10.38,10.38,0,0,0-3.56,4.66H47.15a26.18,26.18,0,0,1,3.2-7.36,11.54,11.54,0,0,1,3.55-3.67,10.37,10.37,0,0,1,5-.95H79.67V53Z"/><circle class="cls-1" cx="64" cy="64.38" r="43"/><line class="cls-2" x1="132" y1="132" x2="95" y2="95"/></svg>